<?xml version="1.0" encoding="UTF-8" standalone="no"?><!DOCTYPE svg PUBLIC "-//W3C//DTD SVG 1.1//EN" "http://www.w3.org/Graphics/SVG/1.1/DTD/svg11.dtd"><svg width="100%" height="100%" viewBox="0 0 37 34" version="1.1" xmlns="http://www.w3.org/2000/svg" xmlns:xlink="http://www.w3.org/1999/xlink" xml:space="preserve" xmlns:serif="http://www.serif.com/" style="fill-rule:evenodd;clip-rule:evenodd;stroke-linecap:round;stroke-linejoin:round;"><path d="M34.352,26.438l-31.2,0.26c-0.828,0.007 -1.5,-0.672 -1.5,-1.5l-0,-5.063c-0,-0.828 0.671,-1.5 1.5,-1.5l31.417,0.456l-0.217,7.347Z" style="fill:#a57939;fill-rule:nonzero;"/><path d="M15.812,26.828l-13.41,-0c-0.828,-0 -1.5,0.525 -1.5,1.174l-0,3.524c-0,0.649 0.671,1.175 1.5,1.175l31.5,-0c0.828,-0 1.5,-0.526 1.5,-1.175l-0,-3.524c-0,-0.649 -0.672,-1.174 -1.5,-1.174l-13.343,-0" style="fill:#f4aa41;fill-rule:nonzero;"/><path d="M27.152,26.7l6.75,-0c0.828,-0 1.5,0.538 1.5,1.201l-0,3.602c-0,0.663 -0.672,1.201 -1.5,1.201l-6.75,-0l-0,-6.004Z" style="fill:#e27022;fill-rule:nonzero;"/><path d="M35.402,10.373c-0,0.543 -0.672,0.984 -1.5,0.984l-31.5,-0c-0.828,-0 -1.5,-0.441 -1.5,-0.984c1.113,-5.599 8.407,-9.923 17.25,-9.923c8.842,0 16.14,4.324 17.25,9.923Z" style="fill:#f4aa41;fill-rule:nonzero;"/><path d="M22.652,1.08c2.305,2.474 3.867,5.867 4.5,10.253l6.75,-0c0.828,-0 1.5,-0.431 1.5,-0.961c-1.125,-5.401 -7.995,-8.648 -12.75,-9.293l-0,0.001Z" style="fill:#e27022;fill-rule:nonzero;"/><path d="M23.919,18.115l-12.323,-0l6.162,6.161l6.161,-6.161Z" style="fill:#fcea2b;fill-rule:nonzero;"/><path d="M27.152,18.585l-0,8.115l6,-0c0.828,-0 1.5,-0.672 1.5,-1.5l-0,-5.063c-0,-0.828 -0.672,-1.5 -1.5,-1.5l-5,0" style="fill:#6a462f;fill-rule:nonzero;"/><rect x="3.399" y="13.125" width="29.513" height="1.57" style="fill:#ea5a47;stroke:#ea5a47;stroke-width:1.5px;"/><rect x="27.932" y="13.125" width="4.996" height="1.595" style="fill:#d22f27;stroke:#d22f27;stroke-width:1.5px;"/><path d="M3.069,17.543l30.435,-0.288c1.659,-0.363 1.889,-0.765 2.049,-1.7c-1.396,0.95 -2.476,0.959 -3.436,1.079c-1.74,-0.009 -3.347,0.018 -4.45,-1.388l-4.498,-0.335l-3.253,1.436l-3.254,-0.048l-3.589,-1.244l-3.828,-0.192c-0.916,1.106 -2.641,1.427 -3.684,1.771c-1.601,-0.295 -3.314,0.606 -4.799,-1.079c0.367,1.154 0.374,1.48 2.31,1.988l-0.003,-0Z" style="fill:#b1cc33;fill-rule:nonzero;stroke:#b1cc33;stroke-width:1.5px;stroke-linecap:butt;"/><path d="M27.917,18.105l5.578,-0.85c1.659,-0.364 1.889,-0.766 2.049,-1.701c-1.396,0.95 -2.476,0.959 -3.436,1.079c-1.74,-0.009 -1.566,-0.015 -3.06,-0.764l-1.131,-0.654l-0,2.89Z" style="fill:#5c9e31;fill-rule:nonzero;stroke:#5c9e31;stroke-width:1.5px;stroke-linecap:butt;"/><rect x="27.932" y="13.125" width="3.139" height="1.595" style="fill:#d22f27;stroke:#d22f27;stroke-width:1.5px;stroke-linejoin:miter;"/><path d="M33.152,26.7l-30,-0c-0.828,-0 -1.5,-0.672 -1.5,-1.5l-0,-5.063c-0,-0.828 0.671,-1.5 1.5,-1.5l30,0c0.828,0 1.5,0.672 1.5,1.5l-0,5.063c-0,0.828 -0.672,1.5 -1.5,1.5Z" style="fill:none;fill-rule:nonzero;stroke:#000;stroke-width:1.5px;stroke-miterlimit:10;"/><path d="M33.902,26.828l-31.5,-0c-0.828,-0 -1.5,0.525 -1.5,1.174l-0,3.524c-0,0.649 0.671,1.175 1.5,1.175l31.5,-0c0.828,-0 1.5,-0.526 1.5,-1.175l-0,-3.524c-0,-0.649 -0.672,-1.174 -1.5,-1.174Z" style="fill:none;fill-rule:nonzero;stroke:#000;stroke-width:1.5px;stroke-miterlimit:10;"/><path d="M35.402,10.673c-0,0.543 -0.672,0.984 -1.5,0.984l-31.5,-0c-0.828,-0 -1.5,-0.441 -1.5,-0.985c1.113,-5.598 8.407,-9.922 17.25,-9.922c8.842,0 16.14,4.324 17.25,9.923Z" style="fill:none;fill-rule:nonzero;stroke:#000;stroke-width:1.5px;stroke-miterlimit:10;"/><path d="M23.582,18.923l-10.86,-0.001l5.431,5.374l5.429,-5.374Z" style="fill:none;fill-rule:nonzero;stroke:#000;stroke-width:1.5px;stroke-miterlimit:10;"/><path d="M35.544,15.3c-0.571,0.297 -1.018,0.615 -1.865,0.752c-1.026,0.269 -2.384,0.164 -3.452,-0c-1.446,-0.234 -1.726,-0.995 -3.451,-1.281c-1.068,-0.165 -2.384,-0.165 -3.452,-0c-1.724,0.286 -2.005,1.047 -3.451,1.281c-1.068,0.164 -2.384,0.164 -3.452,-0c-1.446,-0.234 -1.726,-0.995 -3.451,-1.281c-1.068,-0.165 -2.384,-0.165 -3.452,-0c-1.724,0.286 -2.005,1.047 -3.451,1.281c-1.068,0.164 -2.384,0.164 -3.452,-0c-0.847,-0.137 -1.294,-0.455 -1.865,-0.752" style="fill:none;fill-rule:nonzero;stroke:#000;stroke-width:1.5px;stroke-miterlimit:10;"/></svg>